# xmcd
#
# Track frame offsets:
#	150
#	13877
#	27205
#	39554
#	56311
#	73229
#	81840
#	97690
#	111658
#	125092
#	136344
#	148235
#
# Disc length: 2230 seconds
# Revision: 0
# Processed by: cddbd v1.5.2PL0 Copyright (c) Steve Scherf et al.
# Submitted via: dBpowerAMP V12.0
#
DISCID=ad08b40c
DTITLE=Various Artist - Sacred Memories
DYEAR=2016
DGENRE=Country Gospel
TTITLE0=Joe Mullins and the Radio Ramblers - When the Sun of Life Goes Down
TTITLE1=Joe Mullins and the Radio Ramblers - All Dressed Up
TTITLE2=Joe Mullins and the Radio Ramblers - We Can Sing
TTITLE3=Joe Mullins and the Radio Ramblers - Oh Lord
TTITLE4=Joe Mullins and the Radio Ramblers feat. Sharon White-Skaggs and Ricky Skaggs - Sacred Memories
TTITLE5=Joe Mullins and the Radio Ramblers - He's Gettin' It Done
TTITLE6=Joe Mullins and the Radio Ramblers feat. Rhonda Vincent - I Hope We Walk the Last Mile Together
TTITLE7=Joe Mullins and the Radio Ramblers - The Same Old Dipper
TTITLE8=Joe Mullins and the Radio Ramblers - I Know What I Know
TTITLE9=Joe Mullins and the Radio Ramblers - The First Word in Heaven Is He
TTITLE10=Joe Mullins and the Radio Ramblers - The Armor of My God
TTITLE11=Joe Mullins and the Radio Ramblerd feat. The Isaacs - Will the Circle Be Unbroken
EXTD=
EXTT0=
EXTT1=
EXTT2=
EXTT3=
EXTT4=
EXTT5=
EXTT6=
EXTT7=
EXTT8=
EXTT9=
EXTT10=
EXTT11=
PLAYORDER=
